<svg width="36" height="37" version="1.1" id="Layer_1" xmlns="http://www.w3.org/2000/svg" xmlns:xlink="http://www.w3.org/1999/xlink" x="0px" y="0px"
	   viewBox="0 0 132 90" enable-background="new 0 0 132 90" xml:space="preserve">
<path fill="#FFFEFE" opacity="1.000000" stroke="none" 
	d="
M90.000000,91.000000 
	C60.000000,91.000000 30.500000,91.000000 1.000000,91.000000 
	C1.000000,61.000000 1.000000,31.000000 1.000000,1.000000 
	C45.000000,1.000000 89.000000,1.000000 133.000000,1.000000 
	C133.000000,31.000000 133.000000,61.000000 133.000000,91.000000 
	C118.833336,91.000000 104.666664,91.000000 90.000000,91.000000 
M73.581100,79.202232 
	C84.411339,84.345627 92.279350,79.261536 91.860458,67.292725 
	C91.779922,64.991791 91.538315,62.541679 90.660652,60.459862 
	C89.354950,57.362705 90.469414,55.636932 92.735771,53.658325 
	C99.065964,48.131840 104.384209,41.798157 107.298698,33.726398 
	C109.920998,26.463844 108.517174,19.980066 103.567139,14.217294 
	C99.096703,9.012886 93.033035,7.025877 86.911980,9.305356 
	C81.462151,11.334869 76.448624,14.962002 71.808586,18.604998 
	C68.108215,21.510235 65.260353,25.501289 61.843811,29.217281 
	C60.856987,28.022152 60.156956,26.875505 59.185688,26.046724 
	C53.038570,20.801394 47.215675,15.046915 40.523777,10.609650 
	C35.064224,6.989529 28.543764,7.596697 23.186121,11.694916 
	C17.429125,16.098612 14.370154,21.991663 15.633154,29.552025 
	C17.045931,38.008968 21.724371,44.700161 27.807415,50.243832 
	C32.308498,54.345814 35.429760,58.078194 32.374603,64.498520 
	C31.533175,66.266762 31.982840,68.785690 32.234123,70.913628 
	C33.232849,79.371223 40.373604,83.589157 48.219994,80.158447 
	C50.888828,78.991539 53.314072,77.054405 55.518200,75.095230 
	C57.920376,72.960030 59.936569,70.390579 61.762409,68.401184 
	C65.667244,72.071297 69.282776,75.469490 73.581100,79.202232 
z"/>
<path fill="#E7526F" opacity="1.000000" stroke="none" 
	d="
M73.239700,79.034958 
	C69.282776,75.469490 65.667244,72.071297 61.762409,68.401184 
	C59.936569,70.390579 57.920376,72.960030 55.518200,75.095230 
	C53.314072,77.054405 50.888828,78.991539 48.219994,80.158447 
	C40.373604,83.589157 33.232849,79.371223 32.234123,70.913628 
	C31.982840,68.785690 31.533175,66.266762 32.374603,64.498520 
	C35.429760,58.078194 32.308498,54.345814 27.807415,50.243832 
	C21.724371,44.700161 17.045931,38.008968 15.633154,29.552025 
	C14.370154,21.991663 17.429125,16.098612 23.186121,11.694916 
	C28.543764,7.596697 35.064224,6.989529 40.523777,10.609650 
	C47.215675,15.046915 53.038570,20.801394 59.185688,26.046724 
	C60.156956,26.875505 60.856987,28.022152 61.843811,29.217281 
	C65.260353,25.501289 68.108215,21.510235 71.808586,18.604998 
	C76.448624,14.962002 81.462151,11.334869 86.911980,9.305356 
	C93.033035,7.025877 99.096703,9.012886 103.567139,14.217294 
	C108.517174,19.980066 109.920998,26.463844 107.298698,33.726398 
	C104.384209,41.798157 99.065964,48.131840 92.735771,53.658325 
	C90.469414,55.636932 89.354950,57.362705 90.660652,60.459862 
	C91.538315,62.541679 91.779922,64.991791 91.860458,67.292725 
	C92.279350,79.261536 84.411339,84.345627 73.239700,79.034958 
z"/>
</svg>